<svg width="121" height="121" viewBox="0 0 121 121" fill="none" xmlns="http://www.w3.org/2000/svg">
  <path fill-rule="evenodd" clip-rule="evenodd"
        d="M121 84.7V21.175C121 9.68 111.32 0 99.825 0H21.175C9.68 0 0 9.68 0 21.175V99.825C0 111.32 9.68 121 21.175 121H84.7L121 84.7ZM98.01 12.1C104.06 12.1 108.9 16.94 108.9 22.99V79.255H99.825C88.33 79.255 78.65 88.935 78.65 100.43V109.505H22.99C16.94 109.505 12.1 104.665 12.1 98.615V22.99C12.1 16.94 16.94 12.1 22.99 12.1H98.01ZM50 71.6667H43C43 78.3294 48.145 83.9872 55.25 85.8856V94H65.75V85.8856C72.855 83.9872 78 78.3294 78 71.6667C78 61.3189 68.76 58.8622 61.34 56.8894C53.64 54.9167 50 53.4278 50 49.3333C50 45.3133 54.795 41.8889 60.5 41.8889C66.205 41.8889 71 45.3133 71 49.3333H78C78 42.6706 72.855 37.0128 65.75 35.1144V27H55.25V35.1144C48.145 37.0128 43 42.6706 43 49.3333C43 59.6811 52.24 62.1378 59.66 64.1106C67.36 66.0833 71 67.5722 71 71.6667C71 75.6867 66.205 79.1111 60.5 79.1111C54.795 79.1111 50 75.6867 50 71.6667Z"
        fill="url(#paint0_linear)"/>
  <defs>
    <linearGradient id="paint0_linear" x1="60.5" y1="31" x2="60.5" y2="75" gradientUnits="userSpaceOnUse">
      <stop stop-color="#5DA1F3"/>
      <stop offset="1" stop-color="#68C4F4"/>
    </linearGradient>
  </defs>
</svg>
