<svg width="74" height="106" viewBox="0 0 74 106" fill="none" xmlns="http://www.w3.org/2000/svg">
  <g clip-path="url(#clip0)">
    <path
      d="M73.8607 100.209C73.8607 102.939 71.6513 105.157 68.9215 105.157L5.04965 105.23C2.87676 105.23 1.03255 103.834 0.366076 101.889C0.19261 101.387 0.101312 100.857 0.101312 100.3L0.00088501 8.19019C0.00088501 5.46039 2.21029 3.24186 4.94009 3.24186L63.5897 3.17795L68.8119 3.16882C71.5417 3.16882 73.7603 5.37823 73.7603 8.10803L73.8607 100.209Z"
      fill="url(#paint0_linear)"/>
    <path
      d="M67.2416 99.6795L6.72038 99.7434C5.25049 99.7434 4.06362 98.5565 4.06362 97.0866L3.97232 11.3673C3.97232 9.89738 5.15919 8.71051 6.62908 8.71051L67.1412 8.64661C68.6111 8.64661 69.7979 9.83348 69.7979 11.3034L69.8892 97.0227C69.8984 98.4835 68.7115 99.6795 67.2416 99.6795Z"
      fill="white"/>
    <path
      d="M58.7418 15.7131L14.5994 15.7678C13.1386 15.7678 11.9426 14.581 11.9426 13.1202L11.9335 5.76161C11.9335 4.30085 13.1203 3.10485 14.5811 3.10485L58.7326 3.0592C60.1934 3.0592 61.3894 4.24607 61.3894 5.70684L61.3985 13.0654C61.3894 14.5262 60.2025 15.7131 58.7418 15.7131ZM14.5811 4.45606C13.869 4.45606 13.2847 5.04036 13.2847 5.75248L13.2938 13.1111C13.2938 13.8232 13.8781 14.4075 14.5902 14.4075L58.7418 14.3619C59.4539 14.3619 60.0382 13.7775 60.0382 13.0654L60.0291 5.70684C60.0291 4.99471 59.4448 4.41041 58.7326 4.41041L14.5811 4.45606Z"
      fill="url(#paint1_linear)"/>
    <path
      d="M57.4911 6.24549L16.2701 6.29114C15.8136 6.29114 15.4485 5.92595 15.4485 5.46946V1.47975C15.4485 1.02327 15.8136 0.658076 16.2701 0.658076L57.4819 0.612427C57.9384 0.612427 58.3036 0.977617 58.3036 1.43411V5.42381C58.3127 5.8803 57.9475 6.24549 57.4911 6.24549Z"
      fill="url(#paint2_linear)"/>
    <path
      d="M16.3067 6.29109L57.4545 6.24544C57.9293 6.24544 58.3127 5.86199 58.3127 5.38724V3.43347L15.4393 3.47912V5.43289C15.4393 5.90764 15.8319 6.29109 16.3067 6.29109Z"
      fill="#58D6F4"/>
    <path
      d="M30.7682 90.0384L27.2076 68.4922L24.3226 77.8684L16.0693 77.8776C15.5671 77.8776 15.1654 77.4759 15.1654 76.9737C15.1654 76.4716 15.5671 76.0699 16.0693 76.0699L22.9987 76.0608L27.7554 60.6223L31.316 82.2233L35.9356 67.3875L38.3915 74.4174L43.9242 61.0058L49.3016 82.2781L51.3284 75.513L57.2628 75.5038C57.7649 75.5038 58.1666 75.9055 58.1666 76.4077C58.1666 76.9098 57.7649 77.3115 57.2628 77.3115L52.6705 77.3207L49.1555 89.0524L43.5133 66.7393L38.2454 79.4935L36.0269 73.1484L30.7682 90.0384Z"
      fill="#58D6F4"/>
    <path
      d="M24.6512 48.498L13.0473 48.5072C11.1757 48.5072 9.64189 46.9825 9.64189 45.1109L9.62363 28.8873C9.62363 27.0157 11.1483 25.4819 13.0199 25.4819L24.6238 25.4728C26.4954 25.4728 28.0292 26.9974 28.0292 28.8691L28.0475 45.0926C28.0475 46.9642 26.5228 48.4889 24.6512 48.498ZM13.0108 26.4679C11.6778 26.4679 10.6005 27.5544 10.6005 28.8873L10.6188 45.1109C10.6188 46.4438 11.7052 47.5212 13.0382 47.5212L24.6421 47.512C25.975 47.512 27.0524 46.4256 27.0524 45.0926L27.0341 28.8691C27.0341 27.5361 25.9477 26.4588 24.6147 26.4588L13.0108 26.4679Z"
      fill="url(#paint3_linear)"/>
    <path
      d="M18.8356 45.3848C24.3226 45.3757 26.0298 42.2077 26.0298 42.2077C25.7833 41.8973 25.4729 41.6234 25.053 41.3495C23.6105 40.4091 22.451 40.0074 21.9671 39.6057C21.4741 39.2131 21.2002 38.6379 21.2002 38.6379L20.8989 38.8205C20.8989 38.8205 20.7163 38.1906 20.8167 37.232C20.8167 37.232 21.2458 37.1224 21.5654 35.6708C22.0767 35.7712 22.6792 34.4748 22.3962 34C22.2136 33.6896 21.9945 33.717 21.8393 33.79C21.9945 33.1418 22.6975 29.5538 18.8265 29.5538C14.9554 29.5538 15.6584 33.1418 15.8228 33.79C15.6676 33.717 15.4484 33.6896 15.2658 34C14.9828 34.4748 15.5945 35.7712 16.1058 35.6708C16.4253 37.1224 16.8636 37.2228 16.8636 37.2228C16.9731 38.1723 16.7814 38.8114 16.7814 38.8114L16.4801 38.6288C16.4801 38.6288 16.2062 39.1949 15.7132 39.5966C15.2202 39.9983 14.0698 40.4091 12.6273 41.3495C12.2074 41.6234 11.8878 41.8973 11.6505 42.2077C11.6413 42.2259 13.3577 45.394 18.8356 45.3848Z"
      fill="url(#paint4_linear)"/>
    <path
      d="M54.9712 30.6493L32.6307 30.6767C32.2107 30.6767 31.8729 30.3389 31.8729 29.919V29.7911C31.8729 29.3712 32.2107 29.0334 32.6307 29.0334L54.9712 29.006C55.3912 29.006 55.729 29.3438 55.729 29.7638V29.8916C55.729 30.3115 55.382 30.6493 54.9712 30.6493Z"
      fill="url(#paint5_linear)"/>
    <path
      d="M46.7544 34.9039L32.6307 34.9221C32.2107 34.9221 31.8729 34.5843 31.8729 34.1644V34.0365C31.8729 33.6166 32.2107 33.2788 32.6307 33.2788L46.7544 33.2605C47.1744 33.2605 47.5122 33.5983 47.5122 34.0183V34.1461C47.5122 34.5661 47.1744 34.9039 46.7544 34.9039Z"
      fill="url(#paint6_linear)"/>
    <path opacity="0.6"
          d="M62.6767 39.9617L32.6398 39.9982C32.2198 39.9982 31.882 39.6604 31.882 39.2405V39.1126C31.882 38.6927 32.2198 38.3549 32.6398 38.3549L62.6767 38.3184C63.0967 38.3184 63.4345 38.6562 63.4345 39.0761V39.2039C63.4254 39.6239 63.0876 39.9617 62.6767 39.9617Z"
          fill="url(#paint7_linear)"/>
    <path opacity="0.6"
          d="M62.0285 54.1768L11.9244 54.2316C11.4953 54.2316 11.1392 53.8847 11.1392 53.4464V53.3734C11.1392 52.9443 11.4861 52.5882 11.9244 52.5882L62.0285 52.5334C62.4576 52.5334 62.8137 52.8804 62.8137 53.3186V53.3916C62.8137 53.8299 62.4576 54.1768 62.0285 54.1768Z"
          fill="url(#paint8_linear)"/>
    <path opacity="0.6"
          d="M62.6767 44.9283L32.6398 44.9648C32.2198 44.9648 31.882 44.627 31.882 44.207V44.0792C31.882 43.6592 32.2198 43.3214 32.6398 43.3214L62.6767 43.2849C63.0967 43.2849 63.4345 43.6227 63.4345 44.0427V44.1705C63.4345 44.5905 63.0967 44.9283 62.6767 44.9283Z"
          fill="url(#paint9_linear)"/>
  </g>
  <defs>
    <linearGradient id="paint0_linear" x1="-10.2273" y1="38.8751" x2="84.0889" y2="69.5203"
                    gradientUnits="userSpaceOnUse">
      <stop stop-color="#6CBCFC"/>
      <stop offset="0.1713" stop-color="#5EABFC"/>
      <stop offset="0.4084" stop-color="#509AFC"/>
      <stop offset="0.6698" stop-color="#4890FC"/>
      <stop offset="1" stop-color="#458DFC"/>
    </linearGradient>
    <linearGradient id="paint1_linear" x1="-5.7526" y1="-22.9245" x2="61.3913" y2="9.41026"
                    gradientUnits="userSpaceOnUse">
      <stop stop-color="#CFE9FF"/>
      <stop offset="1" stop-color="#A1D6FB"/>
    </linearGradient>
    <linearGradient id="paint2_linear" x1="15.438" y1="3.45285" x2="58.312" y2="3.45285" gradientUnits="userSpaceOnUse">
      <stop stop-color="#B0F4FF"/>
      <stop offset="1" stop-color="#69DCFC"/>
    </linearGradient>
    <linearGradient id="paint3_linear" x1="15.5655" y1="32.7742" x2="26.3354" y2="46.6771"
                    gradientUnits="userSpaceOnUse">
      <stop stop-color="#6CBCFC"/>
      <stop offset="1" stop-color="#458DFC"/>
    </linearGradient>
    <linearGradient id="paint4_linear" x1="14.3974" y1="33.6791" x2="25.1674" y2="47.5822"
                    gradientUnits="userSpaceOnUse">
      <stop stop-color="#B0F4FF"/>
      <stop offset="0.0994384" stop-color="#A1EFFE"/>
      <stop offset="0.2994" stop-color="#88E7FD"/>
      <stop offset="0.5095" stop-color="#77E1FD"/>
      <stop offset="0.7344" stop-color="#6CDDFC"/>
      <stop offset="1" stop-color="#69DCFC"/>
    </linearGradient>
    <linearGradient id="paint5_linear" x1="31.8742" y1="29.8488" x2="55.7242" y2="29.8631"
                    gradientUnits="userSpaceOnUse">
      <stop stop-color="#6CBCFC"/>
      <stop offset="1" stop-color="#458DFC"/>
    </linearGradient>
    <linearGradient id="paint6_linear" x1="31.8785" y1="34.0913" x2="47.5112" y2="34.0913"
                    gradientUnits="userSpaceOnUse">
      <stop stop-color="#6CBCFC"/>
      <stop offset="1" stop-color="#458DFC"/>
    </linearGradient>
    <linearGradient id="paint7_linear" x1="31.8837" y1="39.1633" x2="63.4294" y2="39.1633"
                    gradientUnits="userSpaceOnUse">
      <stop stop-color="#6CBCFC"/>
      <stop offset="1" stop-color="#458DFC"/>
    </linearGradient>
    <linearGradient id="paint8_linear" x1="11.1388" y1="53.3873" x2="62.8111" y2="53.3873"
                    gradientUnits="userSpaceOnUse">
      <stop stop-color="#6CBCFC"/>
      <stop offset="1" stop-color="#458DFC"/>
    </linearGradient>
    <linearGradient id="paint9_linear" x1="31.8888" y1="44.1287" x2="63.4344" y2="44.1287"
                    gradientUnits="userSpaceOnUse">
      <stop stop-color="#6CBCFC"/>
      <stop offset="1" stop-color="#458DFC"/>
    </linearGradient>
    <clipPath id="clip0">
      <rect width="73.8598" height="104.609" fill="white" transform="translate(0.00088501 0.612427)"/>
    </clipPath>
  </defs>
</svg>
