<svg width="75" height="106" viewBox="0 0 75 106" fill="none" xmlns="http://www.w3.org/2000/svg">
  <g clip-path="url(#clip0)">
    <path
      d="M72.4157 0.545898H3.43994C2.02135 0.545898 0.874588 1.67812 0.874588 3.07872V102.63C0.874588 104.031 2.02135 105.163 3.43994 105.163H72.4157C73.8343 105.163 74.981 104.031 74.981 102.63V3.07872C74.9725 1.67812 73.8258 0.545898 72.4157 0.545898Z"
      fill="url(#paint0_linear)"/>
    <path
      d="M67.8881 5.05798H7.95902C6.5829 5.05798 5.46162 6.16504 5.46162 7.5321V89.8403C5.46162 91.2074 6.5829 92.3061 7.95902 92.3061H67.8881C69.2727 92.3061 70.3855 91.199 70.3855 89.8403V7.5321C70.3855 6.16504 69.2727 5.05798 67.8881 5.05798Z"
      fill="white"/>
    <path
      d="M50.177 44.191H25.6787C24.5574 44.191 23.6485 43.2936 23.6485 42.1865V17.9905C23.6485 16.8835 24.5574 15.9861 25.6787 15.9861H50.177C51.2982 15.9861 52.2072 16.8835 52.2072 17.9905V42.1781C52.2072 43.2852 51.2982 44.191 50.177 44.191Z"
      fill="url(#paint1_linear)"/>
    <path
      d="M37.9278 102.454C40.0108 102.454 41.6994 100.787 41.6994 98.7304C41.6994 96.6739 40.0108 95.0067 37.9278 95.0067C35.8448 95.0067 34.1562 96.6739 34.1562 98.7304C34.1562 100.787 35.8448 102.454 37.9278 102.454Z"
      fill="white"/>
    <path
      d="M59.2746 56.7208H16.5725C15.4937 56.7208 14.6103 55.8486 14.6103 54.7834C14.6103 53.7183 15.4937 52.8461 16.5725 52.8461H59.2661C60.3449 52.8461 61.2284 53.7183 61.2284 54.7834C61.2284 55.8486 60.3534 56.7208 59.2746 56.7208Z"
      fill="url(#paint2_linear)"/>
    <path opacity="0.6"
          d="M52.0458 67.456H15.859C15.1709 67.456 14.6188 66.9024 14.6188 66.2315V66.0973C14.6188 65.4179 15.1794 64.8728 15.859 64.8728H52.0458C52.7338 64.8728 53.286 65.4263 53.286 66.0973V66.2315C53.2945 66.9024 52.7338 67.456 52.0458 67.456Z"
          fill="url(#paint3_linear)"/>
    <path opacity="0.3"
          d="M45.1567 74.2745H15.7401C15.1199 74.2745 14.6103 73.7713 14.6103 73.159V72.79C14.6103 72.1778 15.1199 71.6746 15.7401 71.6746H45.1482C45.7683 71.6746 46.2779 72.1778 46.2779 72.79V73.159C46.2779 73.7713 45.7683 74.2745 45.1567 74.2745Z"
          fill="url(#paint4_linear)"/>
    <path opacity="0.6"
          d="M48.8603 80.5897H15.808C15.1539 80.5897 14.6188 80.0614 14.6188 79.4156V79.1807C14.6188 78.535 15.1539 78.0066 15.808 78.0066H48.8603C49.5144 78.0066 50.0496 78.535 50.0496 79.1807V79.4156C50.0496 80.053 49.5144 80.5897 48.8603 80.5897Z"
          fill="url(#paint5_linear)"/>
    <path
      d="M38.0014 29.3087C40.4543 29.3087 42.4427 27.3194 42.4427 24.8652C42.4427 22.411 40.4543 20.4216 38.0014 20.4216C35.5485 20.4216 33.5602 22.411 33.5602 24.8652C33.5602 27.3194 35.5392 29.3087 38.0014 29.3087ZM38.0014 31.5305C35.0375 31.5305 29.119 33.0179 29.119 35.9741V37.0896C29.119 37.7031 29.6207 38.2051 30.2339 38.2051H45.7875C46.4007 38.2051 46.9025 37.7031 46.9025 37.0896V35.9741C46.8839 33.0272 40.9653 31.5305 38.0014 31.5305Z"
      fill="white"/>
  </g>
  <defs>
    <linearGradient id="paint0_linear" x1="5.36394" y1="50.1306" x2="75.0307" y2="56.1029"
                    gradientUnits="userSpaceOnUse">
      <stop stop-color="#6CBCFC"/>
      <stop offset="1" stop-color="#458DFC"/>
    </linearGradient>
    <linearGradient id="paint1_linear" x1="21.4338" y1="21.7896" x2="54.2421" y2="38.721"
                    gradientUnits="userSpaceOnUse">
      <stop stop-color="#B0F4FF"/>
      <stop offset="0.0856277" stop-color="#A3F0FE"/>
      <stop offset="0.2972" stop-color="#8AE7FD"/>
      <stop offset="0.5161" stop-color="#77E1FD"/>
      <stop offset="0.7451" stop-color="#6DDDFC"/>
      <stop offset="1" stop-color="#69DCFC"/>
    </linearGradient>
    <linearGradient id="paint2_linear" x1="61.2325" y1="54.785" x2="14.6183" y2="54.785" gradientUnits="userSpaceOnUse">
      <stop stop-color="#6CBCFC"/>
      <stop offset="1" stop-color="#458DFC"/>
    </linearGradient>
    <linearGradient id="paint3_linear" x1="53.292" y1="66.1606" x2="14.6183" y2="66.1606"
                    gradientUnits="userSpaceOnUse">
      <stop stop-color="#6CBCFC"/>
      <stop offset="1" stop-color="#458DFC"/>
    </linearGradient>
    <linearGradient id="paint4_linear" x1="46.2788" y1="72.9792" x2="14.6183" y2="72.9792"
                    gradientUnits="userSpaceOnUse">
      <stop stop-color="#6CBCFC"/>
      <stop offset="1" stop-color="#458DFC"/>
    </linearGradient>
    <linearGradient id="paint5_linear" x1="50.0489" y1="79.2914" x2="14.6183" y2="79.2914"
                    gradientUnits="userSpaceOnUse">
      <stop stop-color="#6CBCFC"/>
      <stop offset="1" stop-color="#458DFC"/>
    </linearGradient>
    <clipPath id="clip0">
      <rect width="74.0979" height="104.609" fill="white" transform="translate(0.874588 0.545898)"/>
    </clipPath>
  </defs>
</svg>
