<svg width="104" height="104" viewBox="0 0 104 104" fill="none" xmlns="http://www.w3.org/2000/svg">
  <path
    d="M41.6 1.88918e-05H62.4C65.1583 1.88918e-05 67.8035 1.1534 69.7539 3.20643C71.7043 5.25946 72.8 8.04396 72.8 10.9474V21.8948H93.6C96.3583 21.8948 99.0035 23.0481 100.954 25.1012C102.904 27.1542 104 29.9387 104 32.8421V93.0526C104 95.9561 102.904 98.7406 100.954 100.794C99.0035 102.847 96.3583 104 93.6 104H10.4C4.628 104 0 99.0737 0 93.0526V32.8421C0 26.7663 4.628 21.8948 10.4 21.8948H31.2V10.9474C31.2 4.8716 35.828 1.88918e-05 41.6 1.88918e-05ZM62.4 21.8948V10.9474H41.6V21.8948H62.4Z"
    fill="url(#paint0_linear)"/>
  <defs>
    <linearGradient id="paint0_linear" x1="52" y1="10.9474" x2="52" y2="114.947" gradientUnits="userSpaceOnUse">
      <stop stop-color="#4B94FD"/>
      <stop offset="1" stop-color="#A7F1FF"/>
    </linearGradient>
  </defs>
</svg>
