<svg width="78" height="106" viewBox="0 0 78 106" fill="none" xmlns="http://www.w3.org/2000/svg">
  <g clip-path="url(#clip0)">
    <path
      d="M77.2598 5.39347V100.527C77.2598 103.152 75.1388 105.273 72.5135 105.273H5.56181C2.93659 105.256 0.815552 103.135 0.815552 100.527V5.39347C0.815552 2.76825 2.93659 0.647217 5.56181 0.647217H72.5309C75.1388 0.647217 77.2598 2.76825 77.2598 5.39347Z"
      fill="url(#paint0_linear)"/>
    <path
      d="M72.39 9.39761V96.5056C72.39 98.9093 70.5263 100.851 68.2196 100.851H9.39055C7.08383 100.836 5.22012 98.8934 5.22012 96.5056V9.39761C5.22012 6.99386 7.08383 5.05176 9.39055 5.05176H68.2349C70.5263 5.05176 72.39 6.99386 72.39 9.39761Z"
      fill="url(#paint1_linear)"/>
    <path
      d="M30.4053 20.7449V25.0739C30.4053 25.3869 30.1619 25.6303 29.8489 25.6303H24.5463C24.2334 25.6303 23.99 25.8737 23.99 26.1866V31.4892C23.99 31.8021 23.7466 32.0455 23.4337 32.0455H19.1047C18.7917 32.0455 18.5483 31.8021 18.5483 31.4892V26.1866C18.5483 25.8737 18.3049 25.6303 17.992 25.6303H12.7068C12.3939 25.6303 12.1505 25.3869 12.1505 25.0739V20.7449C12.1505 20.432 12.3939 20.1886 12.7068 20.1886H18.0094C18.3223 20.1886 18.5657 19.9452 18.5657 19.6322V14.3297C18.5657 14.0167 18.8091 13.7733 19.1221 13.7733H23.4511C23.764 13.7733 24.0074 14.0167 24.0074 14.3297V19.6322C24.0074 19.9452 24.2508 20.1886 24.5637 20.1886H29.8489C30.1619 20.1886 30.4053 20.432 30.4053 20.7449Z"
      fill="url(#paint2_linear)"/>
    <path opacity="0.5"
          d="M65.3159 44.3372H12.7594C12.4117 44.3372 12.1335 44.059 12.1335 43.7113V41.7119C12.1335 41.3642 12.4117 41.0861 12.7594 41.0861H65.3159C65.6636 41.0861 65.9418 41.3642 65.9418 41.7119V43.7113C65.9244 44.059 65.6636 44.3372 65.3159 44.3372Z"
          fill="url(#paint3_linear)"/>
    <path
      d="M65.3159 19.4237H39.2376C38.8899 19.4237 38.6117 19.1455 38.6117 18.7978V16.8158C38.6117 16.4681 38.8899 16.1899 39.2376 16.1899H65.3159C65.6636 16.1899 65.9418 16.4681 65.9418 16.8158V18.8152C65.9244 19.1455 65.6636 19.4237 65.3159 19.4237Z"
      fill="url(#paint4_linear)"/>
    <path opacity="0.5"
          d="M57.5967 27.873H39.2376C38.8899 27.873 38.6117 27.5949 38.6117 27.2472V25.2478C38.6117 24.9001 38.8899 24.6219 39.2376 24.6219H57.5967C57.9444 24.6219 58.2226 24.9001 58.2226 25.2478V27.2472C58.2052 27.5949 57.9444 27.873 57.5967 27.873Z"
          fill="url(#paint5_linear)"/>
    <path opacity="0.5"
          d="M65.3159 53.8296H12.7594C12.4117 53.8296 12.1335 53.5514 12.1335 53.2037V51.2044C12.1335 50.8567 12.4117 50.5785 12.7594 50.5785H65.3159C65.6636 50.5785 65.9418 50.8567 65.9418 51.2044V53.2037C65.9244 53.5514 65.6636 53.8296 65.3159 53.8296Z"
          fill="url(#paint6_linear)"/>
    <path opacity="0.5"
          d="M65.3159 63.3221H12.7594C12.4117 63.3221 12.1335 63.044 12.1335 62.6963V60.6969C12.1335 60.3492 12.4117 60.071 12.7594 60.071H65.3159C65.6636 60.071 65.9418 60.3492 65.9418 60.6969V62.7136C65.9244 63.044 65.6636 63.3221 65.3159 63.3221Z"
          fill="url(#paint7_linear)"/>
    <path opacity="0.5"
          d="M65.3159 72.832H12.7594C12.4117 72.832 12.1335 72.5539 12.1335 72.2062V70.2068C12.1335 69.8591 12.4117 69.5809 12.7594 69.5809H65.3159C65.6636 69.5809 65.9418 69.8591 65.9418 70.2068V72.2062C65.9244 72.5539 65.6636 72.832 65.3159 72.832Z"
          fill="url(#paint8_linear)"/>
    <path opacity="0.5"
          d="M65.3159 82.3246H12.7594C12.4117 82.3246 12.1335 82.0464 12.1335 81.6987V79.6994C12.1335 79.3517 12.4117 79.0735 12.7594 79.0735H65.3159C65.6636 79.0735 65.9418 79.3517 65.9418 79.6994V81.6987C65.9244 82.0464 65.6636 82.3246 65.3159 82.3246Z"
          fill="url(#paint9_linear)"/>
    <path opacity="0.5"
          d="M65.3159 91.817H12.7594C12.4117 91.817 12.1335 91.5388 12.1335 91.1911V89.1918C12.1335 88.8441 12.4117 88.5659 12.7594 88.5659H65.3159C65.6636 88.5659 65.9418 88.8441 65.9418 89.1918V91.1911C65.9244 91.5388 65.6636 91.817 65.3159 91.817Z"
          fill="url(#paint10_linear)"/>
    <path opacity="0.1"
          d="M77.2598 5.39347V100.527C77.2598 103.152 75.1388 105.273 72.5135 105.273H5.56181C2.93659 105.256 0.815552 103.135 0.815552 100.527V98.8756C41.6542 82.0116 60.674 17.3373 64.9682 0.647217H72.5135C75.1388 0.647217 77.2598 2.76825 77.2598 5.39347Z"
          fill="#1A6FB5" fill-opacity="0.4"/>
  </g>
  <defs>
    <linearGradient id="paint0_linear" x1="105.424" y1="139.392" x2="-5.79134" y2="-5.40908"
                    gradientUnits="userSpaceOnUse">
      <stop offset="0.3061" stop-color="#5BA7FC"/>
      <stop offset="1" stop-color="#69B8FC"/>
    </linearGradient>
    <linearGradient id="paint1_linear" x1="10.3119" y1="8.40545" x2="64.6143" y2="86.571"
                    gradientUnits="userSpaceOnUse">
      <stop offset="0.3061" stop-color="white"/>
      <stop offset="1" stop-color="white"/>
    </linearGradient>
    <linearGradient id="paint2_linear" x1="11.8265" y1="11.1081" x2="28.3437" y2="38.0862"
                    gradientUnits="userSpaceOnUse">
      <stop stop-color="#B0F4FF"/>
      <stop offset="0.368525" stop-color="#80E4FD"/>
      <stop offset="1" stop-color="#6CDDFC"/>
    </linearGradient>
    <linearGradient id="paint3_linear" x1="12.1469" y1="42.719" x2="65.9323" y2="42.719" gradientUnits="userSpaceOnUse">
      <stop stop-color="#6CBCFC"/>
      <stop offset="1" stop-color="#458DFC"/>
    </linearGradient>
    <linearGradient id="paint4_linear" x1="38.6122" y1="17.808" x2="65.9323" y2="17.808" gradientUnits="userSpaceOnUse">
      <stop stop-color="#6CBCFC"/>
      <stop offset="1" stop-color="#458DFC"/>
    </linearGradient>
    <linearGradient id="paint5_linear" x1="38.6122" y1="26.2617" x2="58.2134" y2="26.2617"
                    gradientUnits="userSpaceOnUse">
      <stop stop-color="#6CBCFC"/>
      <stop offset="1" stop-color="#458DFC"/>
    </linearGradient>
    <linearGradient id="paint6_linear" x1="12.1469" y1="52.2157" x2="65.9323" y2="52.2157"
                    gradientUnits="userSpaceOnUse">
      <stop stop-color="#6CBCFC"/>
      <stop offset="1" stop-color="#458DFC"/>
    </linearGradient>
    <linearGradient id="paint7_linear" x1="12.1469" y1="61.7126" x2="65.9323" y2="61.7126"
                    gradientUnits="userSpaceOnUse">
      <stop stop-color="#6CBCFC"/>
      <stop offset="1" stop-color="#458DFC"/>
    </linearGradient>
    <linearGradient id="paint8_linear" x1="12.1469" y1="71.2094" x2="65.9323" y2="71.2094"
                    gradientUnits="userSpaceOnUse">
      <stop stop-color="#6CBCFC"/>
      <stop offset="1" stop-color="#458DFC"/>
    </linearGradient>
    <linearGradient id="paint9_linear" x1="12.1469" y1="80.7062" x2="65.9323" y2="80.7062"
                    gradientUnits="userSpaceOnUse">
      <stop stop-color="#6CBCFC"/>
      <stop offset="1" stop-color="#458DFC"/>
    </linearGradient>
    <linearGradient id="paint10_linear" x1="12.1469" y1="90.203" x2="65.9323" y2="90.203"
                    gradientUnits="userSpaceOnUse">
      <stop stop-color="#6CBCFC"/>
      <stop offset="1" stop-color="#458DFC"/>
    </linearGradient>
    <clipPath id="clip0">
      <rect width="76.4443" height="104.609" fill="white" transform="translate(0.815552 0.647217)"/>
    </clipPath>
  </defs>
</svg>
