<svg width="36" height="36" viewBox="0 0 36 36" fill="none" xmlns="http://www.w3.org/2000/svg">
  <path
    d="M18 0C7.848 0 0 7.43428 0 17.4607C0 22.6988 2.142 27.253 5.652 30.3671C5.94 30.6011 6.12 30.9972 6.138 31.3932L6.228 34.5973C6.3 35.6233 7.326 36.2894 8.262 35.8753L11.826 34.3093C12.132 34.2013 12.474 34.1473 12.78 34.2013C14.4 34.6873 16.2 34.9213 18 34.9213C28.152 34.9213 36 27.487 36 17.4607C36 7.43428 28.152 0 18 0ZM28.8 13.4285L23.526 21.8348C22.68 23.1489 20.88 23.4909 19.62 22.5008L15.408 19.3867C15.03 19.0987 14.49 19.0987 14.112 19.3867L8.424 23.7069C7.668 24.3009 6.678 23.4009 7.2 22.5728L12.474 14.1665C13.32 12.8525 15.12 12.5105 16.38 13.4465L20.592 16.6146C20.988 16.9026 21.51 16.9026 21.888 16.6146L27.576 12.2945C28.332 11.7004 29.322 12.6005 28.8 13.4285Z"
    fill="white"/>
</svg>
