<svg width="36" height="36" viewBox="0 0 36 36" fill="none" xmlns="http://www.w3.org/2000/svg">
  <path
    d="M18.0724 0C8.19497 0 0.144724 8.01 0.144724 17.838C0.144724 20.988 0.976885 24.048 2.53266 26.748L0 36L9.49749 33.516C12.1206 34.938 15.0693 35.694 18.0724 35.694C27.9497 35.694 36 27.684 36 17.856C36 13.086 34.1367 8.604 30.7538 5.238C27.3709 1.854 22.8663 0 18.0724 0ZM18.0905 3.006C22.0703 3.006 25.797 4.554 28.6191 7.362C31.4231 10.17 32.9789 13.896 32.9789 17.856C32.9789 26.028 26.2854 32.67 18.0724 32.67C15.395 32.67 12.7719 31.968 10.4925 30.6L9.94975 30.294L4.30553 31.77L5.80703 26.298L5.44523 25.722C3.96181 23.4 3.16583 20.646 3.16583 17.838C3.18392 9.666 9.85929 3.006 18.0905 3.006ZM11.7226 9.594C11.4332 9.594 10.9447 9.702 10.5286 10.152C10.1307 10.602 8.95477 11.7 8.95477 13.878C8.95477 16.074 10.5648 18.18 10.7638 18.486C11.0171 18.792 13.9477 23.292 18.4523 25.2C19.5196 25.686 20.3518 25.956 21.003 26.154C22.0704 26.496 23.0472 26.442 23.8251 26.334C24.6935 26.208 26.4663 25.254 26.8462 24.21C27.2261 23.166 27.2261 22.284 27.1176 22.086C26.991 21.906 26.7015 21.798 26.2492 21.6C25.797 21.348 23.5899 20.268 23.192 20.124C22.7759 19.98 22.5226 19.908 22.1789 20.34C21.8894 20.79 21.0211 21.798 20.7678 22.086C20.4965 22.392 20.2432 22.428 19.809 22.212C19.3387 21.978 17.8915 21.51 16.191 19.998C14.8523 18.81 13.9658 17.352 13.6945 16.902C13.4774 16.47 13.6764 16.2 13.8935 16.002C14.0925 15.804 14.3819 15.48 14.5628 15.21C14.798 14.958 14.8704 14.76 15.0151 14.472C15.1598 14.166 15.0874 13.914 14.9789 13.698C14.8703 13.5 13.9658 11.268 13.5859 10.386C13.2241 9.522 12.8623 9.63 12.5729 9.612C12.3196 9.612 12.0301 9.594 11.7226 9.594Z"
    fill="white"/>
</svg>
