<svg width="49" height="19" viewBox="0 0 49 19" fill="none" xmlns="http://www.w3.org/2000/svg">
  <path
    d="M5.76085 4.22222C5.26103 4.22222 4.82369 4.41222 4.53213 4.75C4.24057 5.06667 4.11561 5.53111 4.17809 6.03778L5.21938 12.35C5.38599 13.7222 6.59388 14.7778 7.84343 14.7778H14.0912C15.424 14.7778 16.9235 13.5956 17.215 12.2867L19.4226 5.55222C19.5059 5.27778 19.4434 4.87667 19.2976 4.62333C19.0685 4.37 18.7145 4.22222 18.2563 4.22222H5.76085ZM14.0912 19H7.84343C4.46965 19 1.51238 16.34 1.09587 12.9622L0.0545778 6.65C-0.174506 4.85555 0.325313 3.16667 1.40826 1.94222C2.4912 0.717778 4.07396 0 5.76085 0H18.2563C19.9849 0 21.5468 0.738889 22.5465 2.02667C22.7755 2.34333 22.9838 2.68111 23.1504 3.06111C24.0459 2.87111 24.9623 2.87111 25.8369 3.06111C26.0035 2.68111 26.2118 2.34333 26.4617 2.02667C27.4405 0.738889 29.0025 0 30.7518 0H43.2473C44.9342 0 46.517 0.717778 47.5999 1.94222C48.662 3.16667 49.1618 4.85556 48.9536 6.56556L47.8915 13.0467C47.4958 16.34 44.5177 19 41.1647 19H34.917C31.6682 19 28.5026 16.4878 27.7113 13.3L25.8369 7.57889C25.0456 6.98778 23.9418 6.98778 23.1504 7.57889L21.2344 13.4478C20.4847 16.5089 17.34 19 14.0912 19ZM30.7518 4.22222C30.2937 4.22222 29.9396 4.37 29.7105 4.62333C29.5439 4.87667 29.5023 5.27778 29.6064 5.7L31.7098 12.1389C32.0847 13.5956 33.5841 14.7778 34.917 14.7778H41.1647C42.3935 14.7778 43.6222 13.7222 43.768 12.4344L44.8301 5.95333C44.8926 5.53111 44.7676 5.06667 44.476 4.75C44.1845 4.41222 43.7471 4.22222 43.2473 4.22222H30.7518Z"
    fill="#E5E5E5"/>
</svg>
